<svg width="14" height="8" viewBox="0 0 14 8" fill="none" xmlns="http://www.w3.org/2000/svg">
<path fill-rule="evenodd" clip-rule="evenodd" d="M7.70704 0.293275C7.51951 0.105804 7.2652 0.000488584 7.00004 0.000488573C6.73487 0.000488561 6.48057 0.105804 6.29304 0.293275L0.636038 5.95027C0.540527 6.04252 0.464345 6.15287 0.411936 6.27487C0.359527 6.39687 0.331941 6.52809 0.330787 6.66087C0.329633 6.79365 0.354935 6.92533 0.405216 7.04823C0.455497 7.17112 0.52975 7.28278 0.623643 7.37667C0.717535 7.47056 0.829187 7.54482 0.952083 7.5951C1.07498 7.64538 1.20666 7.67068 1.33944 7.66953C1.47222 7.66837 1.60344 7.64079 1.72544 7.58838C1.84745 7.53597 1.95779 7.45979 2.05004 7.36428L7.00004 2.41427L11.95 7.36428C12.1386 7.54643 12.3912 7.64723 12.6534 7.64495C12.9156 7.64267 13.1664 7.5375 13.3519 7.35209C13.5373 7.16669 13.6424 6.91587 13.6447 6.65368C13.647 6.39148 13.5462 6.13888 13.364 5.95028L7.70704 0.293275Z" fill="black"/>
</svg>
