<svg width="17px" height="16px" viewBox="0 0 18 17" fill="none" xmlns="http://www.w3.org/2000/svg">
<path d="M9.38846 13.628L9.00109 13.3937L8.61331 13.6273L4.46331 16.1273L4.46197 16.1281C4.27254 16.2428 4.04039 16.0765 4.09082 15.8596L5.19074 11.14L5.29345 10.6993L4.95146 10.4029L1.28146 7.22295L1.28119 7.22272C1.1111 7.07547 1.20742 6.8043 1.41979 6.7874L1.41979 6.78741L1.42375 6.78708L6.25375 6.37708L6.70399 6.33886L6.88063 5.92296L8.77064 1.47296L8.77186 1.47004C8.81233 1.37363 8.89337 1.32227 9.00032 1.32227C9.10726 1.32227 9.1883 1.37363 9.22877 1.47005L9.22976 1.4724L11.1198 5.9324L11.2962 6.34882L11.7469 6.38708L16.5769 6.79709L16.5808 6.7974C16.7932 6.8143 16.8895 7.08547 16.7194 7.23272L16.7192 7.23295L13.0492 10.4129L12.7072 10.7093L12.8099 11.15L13.9098 15.8696C13.9098 15.8697 13.9098 15.8698 13.9099 15.8699C13.9601 16.0866 13.728 16.2528 13.5387 16.1381L13.5385 16.138L9.38846 13.628Z" stroke="black" stroke-width="1.5"/>
</svg>
