<svg width="20" height="12" viewBox="0 0 20 12" fill="none" xmlns="http://www.w3.org/2000/svg">
<path fill-rule="evenodd" clip-rule="evenodd" d="M11.0604 0.439668C10.7791 0.158461 10.3976 0.000487827 9.9999 0.000487844C9.60216 0.000487861 9.2207 0.158461 8.9394 0.439668L0.453905 8.92517C0.310639 9.06354 0.196366 9.22905 0.117752 9.41206C0.0391389 9.59507 -0.00224053 9.7919 -0.00397125 9.99107C-0.00570196 10.1902 0.032251 10.3878 0.107672 10.5721C0.183094 10.7564 0.294473 10.9239 0.435312 11.0648C0.576151 11.2056 0.743629 11.317 0.927973 11.3924C1.11232 11.4678 1.30984 11.5058 1.50901 11.504C1.70818 11.5023 1.90501 11.4609 2.08801 11.3823C2.27102 11.3037 2.43653 11.1894 2.5749 11.0462L9.9999 3.62117L17.4249 11.0462C17.7078 11.3194 18.0867 11.4706 18.48 11.4672C18.8733 11.4638 19.2495 11.306 19.5276 11.0279C19.8057 10.7498 19.9635 10.3736 19.9669 9.98027C19.9703 9.58697 19.8191 9.20807 19.5459 8.92517L11.0604 0.439668Z" fill="black"/>
</svg>
