<svg width="22" height="22" viewBox="0 0 22 22" fill="none" xmlns="http://www.w3.org/2000/svg">
<path d="M9.5715 1H6.71436V3.85714H9.5715V1Z" stroke="black" stroke-width="1.5" stroke-miterlimit="10"/>
<path d="M3.85714 1H1V3.85714H3.85714V1Z" stroke="black" stroke-width="1.5" stroke-miterlimit="10"/>
<path d="M15.2856 1H12.4285V3.85714H15.2856V1Z" stroke="black" stroke-width="1.5" stroke-miterlimit="10"/>
<path d="M21 1H18.1428V3.85714H21V1Z" stroke="black" stroke-width="1.5" stroke-miterlimit="10"/>
<path d="M9.5715 6.71484H6.71436V9.57199H9.5715V6.71484Z" stroke="black" stroke-width="1.5" stroke-miterlimit="10"/>
<path d="M3.85714 6.71484H1V9.57199H3.85714V6.71484Z" stroke="black" stroke-width="1.5" stroke-miterlimit="10"/>
<path d="M15.2856 6.71484H12.4285V9.57199H15.2856V6.71484Z" stroke="black" stroke-width="1.5" stroke-miterlimit="10"/>
<path d="M21 6.71484H18.1428V9.57199H21V6.71484Z" stroke="black" stroke-width="1.5" stroke-miterlimit="10"/>
<path d="M9.5715 12.4277H6.71436V15.2849H9.5715V12.4277Z" stroke="black" stroke-width="1.5" stroke-miterlimit="10"/>
<path d="M3.85714 12.4277H1V15.2849H3.85714V12.4277Z" stroke="black" stroke-width="1.5" stroke-miterlimit="10"/>
<path d="M15.2856 12.4277H12.4285V15.2849H15.2856V12.4277Z" stroke="black" stroke-width="1.5" stroke-miterlimit="10"/>
<path d="M21 12.4277H18.1428V15.2849H21V12.4277Z" stroke="black" stroke-width="1.5" stroke-miterlimit="10"/>
<path d="M9.5715 18.1426H6.71436V20.9997H9.5715V18.1426Z" stroke="black" stroke-width="1.5" stroke-miterlimit="10"/>
<path d="M3.85714 18.1426H1V20.9997H3.85714V18.1426Z" stroke="black" stroke-width="1.5" stroke-miterlimit="10"/>
<path d="M15.2856 18.1426H12.4285V20.9997H15.2856V18.1426Z" stroke="black" stroke-width="1.5" stroke-miterlimit="10"/>
<path d="M21 18.1426H18.1428V20.9997H21V18.1426Z" stroke="black" stroke-width="1.5" stroke-miterlimit="10"/>
</svg>
