<svg width="8" height="15" viewBox="0 0 8 15" fill="none" xmlns="http://www.w3.org/2000/svg">
<path fill-rule="evenodd" clip-rule="evenodd" d="M7.70697 8.20698C7.89444 8.01945 7.99976 7.76514 7.99976 7.49998C7.99976 7.23481 7.89444 6.9805 7.70697 6.79298L2.04997 1.13598C1.95772 1.04047 1.84738 0.964284 1.72537 0.911875C1.60337 0.859466 1.47215 0.83188 1.33937 0.830726C1.20659 0.829572 1.07491 0.854874 0.952016 0.905155C0.82912 0.955436 0.717467 1.02969 0.623574 1.12358C0.529682 1.21747 0.455429 1.32913 0.405148 1.45202C0.354867 1.57492 0.329565 1.7066 0.330719 1.83938C0.331873 1.97216 0.359459 2.10338 0.411868 2.22538C0.464277 2.34739 0.540459 2.45773 0.635969 2.54998L5.58597 7.49998L0.635969 12.45C0.453811 12.6386 0.353017 12.8912 0.355295 13.1534C0.357574 13.4156 0.462742 13.6664 0.64815 13.8518C0.833559 14.0372 1.08437 14.1424 1.34657 14.1447C1.60876 14.1469 1.86137 14.0461 2.04997 13.864L7.70697 8.20698Z" fill="black"/>
</svg>
