<?xml version="1.0" encoding="utf-8"?>
<!-- Generator: Adobe Illustrator 28.4.1, SVG Export Plug-In . SVG Version: 6.00 Build 0)  -->
<svg version="1.1" id="Layer_1" xmlns="http://www.w3.org/2000/svg" xmlns:xlink="http://www.w3.org/1999/xlink" x="0px" y="0px"
	 viewBox="0 0 16 16" style="enable-background:new 0 0 16 16;" xml:space="preserve">
<style type="text/css">
	.st0{fill:#4A7BD9;}
	.st1{fill:#F2F4F8;}
</style>
<g>
	<g>
		<path class="st0" d="M14,0H2C0.9,0,0,0.9,0,2v12c0,1.1,0.9,2,2,2h12c1.1,0,2-0.9,2-2V2C16,0.9,15.1,0,14,0z"/>
	</g>
	<g>
		<path class="st1" d="M10.8,11.1v0.3c0,0.2-0.1,0.3-0.3,0.3H5.5c-0.2,0-0.3-0.1-0.3-0.3v-0.3c0-0.2,0.1-0.3,0.3-0.3h4.9
			C10.6,10.8,10.8,10.9,10.8,11.1z M10.5,7.6H5.5c-0.2,0-0.3,0.1-0.3,0.3v0.3c0,0.2,0.1,0.3,0.3,0.3h4.9c0.2,0,0.3-0.1,0.3-0.3V7.9
			C10.8,7.7,10.6,7.6,10.5,7.6z M10.5,4.3H5.5c-0.2,0-0.3,0.1-0.3,0.3v0.3c0,0.2,0.1,0.3,0.3,0.3h4.9c0.2,0,0.3-0.1,0.3-0.3V4.6
			C10.8,4.5,10.6,4.3,10.5,4.3z"/>
	</g>
</g>
</svg>
